<svg xmlns="http://www.w3.org/2000/svg" viewBox="0 0 162.14 25.68">
    <defs>
        <style>.cls-1{fill:#fff;}</style>
    </defs>
    <g id="Layer_2" data-name="Layer 2">
        <g id="Layer_1-2" data-name="Layer 1">
            <rect x="5.21" y="10.35" width="3.3" height="3.3" fill="#00af9a" />
            <polygon class="cls-1"
                points="0 3.83 0 10.35 3.32 10.35 3.32 7 10.76 7 10.76 3.83 0 3.83" />
            <rect class="cls-1" y="13.65" width="3.33" height="6.53" />
            <rect class="cls-1" x="85.18" y="3.83" width="3.08" height="2.88" />
            <path class="cls-1"
                d="M26.69,9.33V8.14h-3v12h3.09V14.27a3.67,3.67,0,0,1,.77-2.62,3.46,3.46,0,0,1,3-.75v-3a4,4,0,0,0-3.88,1.42" />
            <path class="cls-1"
                d="M37.15,17.66a3.3,3.3,0,0,1-3.09-3.46,3.36,3.36,0,0,1,3.09-3.53,2.85,2.85,0,0,1,2.49,1.52h3.3a5.64,5.64,0,0,0-5.8-4.35A6.16,6.16,0,0,0,30.93,14v.22a6.12,6.12,0,0,0,6,6.29h.26A5.64,5.64,0,0,0,43,16.11H39.67a2.85,2.85,0,0,1-2.52,1.55" />
            <path class="cls-1"
                d="M50.18,7.84a6.31,6.31,0,0,0,0,12.62,5.7,5.7,0,0,0,5.7-3.77h-3.4a2.87,2.87,0,0,1-2.32,1.06,3.07,3.07,0,0,1-3-2.39h9.1c.44-4.76-2.5-7.52-6-7.52m-3,5a3.06,3.06,0,0,1,3-2.29,3,3,0,0,1,3,2.29Z" />
            <rect class="cls-1" x="85.18" y="8.14" width="3.08" height="12.04" />
            <path class="cls-1"
                d="M96.07,7.84A4,4,0,0,0,93,9.31V8.14H90v12H93.1v-7a2.29,2.29,0,0,1,2.17-2.38h.17a2.14,2.14,0,0,1,2.24,2.38v7h3.09v-7c0-3.17-1.87-5.3-4.7-5.3" />
            <path class="cls-1"
                d="M105.41,15.13V10.88h2.19V8.13h-2.19V5.39h-3.09v9.72c0,3.29,1.87,5.42,5.4,5.05V17.35c-1.54.09-2.31-.55-2.31-2.22" />
            <path class="cls-1"
                d="M16,7.84a6.31,6.31,0,1,0,6.31,6.31h0A6.3,6.3,0,0,0,16,7.84m0,9.78A3.49,3.49,0,1,1,19.36,14v.1A3.43,3.43,0,0,1,16,17.62h0" />
            <path class="cls-1"
                d="M77.58,7.84a6.31,6.31,0,1,0,6.31,6.31,6.31,6.31,0,0,0-6.31-6.31m0,9.79A3.48,3.48,0,1,1,81,14.05v.1a3.43,3.43,0,0,1-3.38,3.47" />
            <path class="cls-1"
                d="M64.33,7.86a5.11,5.11,0,0,0-3.67,1.52V8.12h-3V24.34h3.11V19a5,5,0,0,0,3.53,1.43c3.15,0,5.72-2.75,5.72-6.31s-2.57-6.27-5.72-6.27m-.45,9.7a3.27,3.27,0,0,1-3.08-3.43,3.26,3.26,0,0,1,3.08-3.4A3.21,3.21,0,0,1,67,14.13a3.24,3.24,0,0,1-3.09,3.43" />
        </g>
    </g>
</svg>